<svg width="600" height="733" viewBox="0 0 600 733" fill="none" xmlns="http://www.w3.org/2000/svg">
<path d="M323.22 9.42102C323.22 9.42102 323.24 9.43769 323.297 9.49436L323.26 9.45802L323.683 9.83602C324.27 10.3547 325.433 11.348 327.237 12.7507C330.84 15.555 337.023 20.0077 346.317 25.5837C364.897 36.7317 395.99 52.4154 443.873 68.3774C492.86 84.706 524.837 92.6404 544.037 96.4807C553.623 98.398 559.957 99.281 563.577 99.683C565.383 99.8837 566.5 99.9634 566.997 99.9924L567.22 100.005C585.377 100.301 600 115.109 600 133.333V366.667C600 481.547 523.943 573.343 455.283 633.42C420.253 664.07 385.383 688.027 359.333 704.307C346.273 712.47 335.343 718.757 327.603 723.043C321.01 726.693 314.723 729.127 307.91 731.167C302.75 732.713 297.237 732.767 292.073 731.23C285.253 729.203 278.983 726.69 272.397 723.043C264.657 718.757 253.727 712.47 240.667 704.307C214.618 688.027 179.746 664.07 144.717 633.42C76.0583 573.343 0 481.547 0 366.667V133.333C0 115.109 14.625 100.301 32.7783 100.005L33.0037 99.9924C33.4997 99.9634 34.6167 99.8837 36.423 99.683C40.042 99.281 46.3757 98.398 55.9627 96.4807C75.1647 92.6404 107.14 84.706 156.126 68.3774C204.011 52.4154 235.103 36.7317 253.683 25.5837C262.977 20.0077 269.16 15.555 272.763 12.7507C274.567 11.348 275.73 10.3547 276.32 9.83602L276.74 9.45802C289.677 -3.15267 310.323 -3.15267 323.26 9.45802L323.22 9.42102Z" fill="#F07C68"/>
</svg>
