<svg width="500" height="500" viewBox="0 0 500 500" fill="none" xmlns="http://www.w3.org/2000/svg">
<path d="M300.49 14.7811C320.241 -4.9357 352.353 -4.9184 372.07 14.7811L499.999 142.712V190.786L348.033 38.8182C341.552 32.3377 330.991 32.3722 324.51 38.8358L38.8246 324.491C32.361 330.972 32.3607 341.533 38.8412 348.014L190.809 500H142.738L14.7875 372.034C-4.92919 352.3 -4.92919 320.205 14.7875 300.471L300.49 14.7811ZM499.999 272.557C482.83 287.753 454.571 297.626 432.18 295.618L363.361 289.686L291.266 361.781L305.685 413.354C312.388 437.255 304.193 468.544 286.62 486.1L272.721 500H224.646L262.582 462.063C271.343 453.302 276.281 434.443 272.938 422.51L256.531 363.805C256.205 363.067 256.102 362.296 255.896 361.524L255.639 360.633C255.588 360.41 255.639 360.221 255.605 359.998C255.331 358.541 255.159 357.118 255.279 355.643C255.416 350.003 258.279 344.945 263.063 341.91L341.312 263.66C344.175 258.534 349.576 255.31 355.714 255.259C356.28 255.207 356.829 255.071 357.411 255.088C357.446 255.088 357.48 255.07 357.532 255.07L435.112 261.739C448.313 262.768 469.367 255.293 478.866 245.777L499.999 224.656V272.557ZM190.916 292.909C197.569 286.274 208.319 286.274 214.954 292.909C221.607 299.544 221.607 310.312 214.954 316.947L192.974 338.927L214.954 360.907C221.606 367.542 221.606 378.309 214.954 384.944C211.646 388.27 207.291 389.933 202.936 389.933C198.598 389.933 194.242 388.27 190.916 384.944L168.937 362.965L146.957 384.944C143.648 388.27 139.294 389.933 134.939 389.933C130.601 389.933 126.246 388.27 122.92 384.944C116.285 378.309 116.285 367.542 122.92 360.907L144.9 338.927L122.92 316.947C116.285 310.312 116.285 299.544 122.92 292.909C129.572 286.274 140.322 286.274 146.957 292.909L168.937 314.89L190.916 292.909ZM323.344 221.191H289.054V186.901H323.344V221.191ZM391.393 221.191H357.103V186.901H391.393V221.191ZM323.344 153.159H289.054V118.852H323.344V153.159ZM391.393 153.159H357.103V118.852H391.393V153.159Z" fill="#FBEAD9"/>
</svg>
